<?xml version="1.0" encoding="utf-8"?>
<!-- Generator: Adobe Illustrator 26.0.1, SVG Export Plug-In . SVG Version: 6.00 Build 0)  -->
<svg version="1.1" id="Capa_1" xmlns="http://www.w3.org/2000/svg" xmlns:xlink="http://www.w3.org/1999/xlink" x="0px" y="0px"
	 viewBox="0 0 100 63" style="enable-background:new 0 0 100 63;" xml:space="preserve">
<style type="text/css">
	.st0{fill:#00AD9B;}
	.st1{fill:#5E00E6;}
	.st2{fill:#FFFFFF;}
</style>
<g>
	<g>
		<g>
			<path class="st0" d="M4.31,50.41H0v-2.48h11.29v2.48H7v12.27H4.31V50.41z"/>
			<path class="st0" d="M17.62,61.31c-0.73,0.98-1.85,1.57-3.24,1.57c-1.77,0-3.19-1.02-3.19-2.91c0-2.03,1.73-2.81,3.82-3.28
				l2.52-0.57c-0.22-1-0.9-1.42-1.91-1.42c-1.14,0-1.87,0.49-2.12,1.51l-2.36-0.43c0.47-1.87,2.05-3.17,4.52-3.17
				c2.62,0,4.33,1.38,4.33,4.13v5.94h-2.2L17.62,61.31z M14.91,60.84c1.32,0,2.67-0.85,2.67-2.64v-0.24l-2.44,0.61
				c-0.85,0.2-1.42,0.49-1.42,1.24C13.73,60.48,14.18,60.84,14.91,60.84z"/>
			<path class="st0" d="M22.65,52.83h2.32l0.16,1.16c0.57-0.81,1.46-1.34,2.69-1.34c0.35,0,0.59,0.04,0.98,0.14l-0.29,2.44
				c-0.35-0.1-0.71-0.14-1.02-0.14c-1.32,0-2.34,0.9-2.34,2.5v5.09h-2.5V52.83z"/>
			<path class="st0" d="M29.5,57.81c0-2.99,2.1-5.19,5.09-5.19c2.89,0,4.9,1.95,4.9,4.78c0,0.35-0.04,0.75-0.12,1.12h-7.34
				c0.26,1.53,1.26,2.22,2.67,2.22c1.3,0,2.05-0.57,2.38-1.42l2.3,0.47c-0.59,1.95-2.3,3.09-4.68,3.09
				C31.45,62.88,29.5,60.74,29.5,57.81z M32.11,56.61h4.76c-0.22-1.26-1.02-1.93-2.28-1.93C33.45,54.68,32.47,55.29,32.11,56.61z"/>
			<path class="st0" d="M47.47,61.31c-0.73,0.98-1.85,1.57-3.24,1.57c-1.77,0-3.19-1.02-3.19-2.91c0-2.03,1.73-2.81,3.82-3.28
				l2.52-0.57c-0.22-1-0.9-1.42-1.91-1.42c-1.14,0-1.87,0.49-2.12,1.51l-2.36-0.43c0.47-1.87,2.05-3.17,4.52-3.17
				c2.62,0,4.33,1.38,4.33,4.13v5.94h-2.2L47.47,61.31z M44.76,60.84c1.32,0,2.67-0.85,2.67-2.64v-0.24l-2.44,0.61
				c-0.85,0.2-1.42,0.49-1.42,1.24C43.58,60.48,44.03,60.84,44.76,60.84z"/>
		</g>
		<g>
			<path class="st1" d="M61.1,52.05c-0.31-1.67-1.65-2.77-3.52-2.77c-1.99,0-3.38,0.92-3.38,2.5c0,1.75,1.85,2.12,3.83,2.58
				c2.34,0.53,4.86,1.16,4.86,4.11c0,2.69-2.14,4.39-5.25,4.39c-3.36,0-5.29-1.85-5.8-4.39l1.69-0.43c0.39,2.03,1.83,3.3,4.11,3.3
				c1.95,0,3.54-0.96,3.54-2.77c0-1.81-1.83-2.24-3.8-2.67c-2.34-0.55-4.9-1.1-4.9-4.01c0-2.5,2.26-4.09,5.09-4.09
				c2.77,0,4.68,1.47,5.19,3.85L61.1,52.05z"/>
			<path class="st1" d="M66.63,51.3h0.35v1.71h3.62v1.34h-3.62v5.35c0,1.2,0.57,1.73,1.65,1.73c0.49,0,1-0.14,1.47-0.33l0.39,1.28
				c-0.63,0.3-1.38,0.47-2.14,0.47c-1.85,0-2.93-1.04-2.93-2.89v-5.6h-1.67v-0.37L66.63,51.3z"/>
			<path class="st1" d="M81.67,57.83c0,2.91-2.1,5.01-5,5.01c-2.89,0-5-2.1-5-5.01c0-2.87,2.1-4.98,5-4.98
				C79.57,52.85,81.67,54.96,81.67,57.83z M73.29,57.83c0,2.12,1.4,3.6,3.38,3.6c1.99,0,3.38-1.47,3.38-3.6
				c0-2.1-1.4-3.56-3.38-3.56C74.69,54.27,73.29,55.72,73.29,57.83z"/>
			<path class="st1" d="M84.13,53.01h1.51l0.04,1.53c0.55-1.02,1.57-1.69,2.93-1.69c0.33,0,0.61,0.04,0.96,0.14l-0.24,1.51
				c-0.35-0.1-0.67-0.14-0.98-0.14c-1.46,0-2.69,1.12-2.69,3.28v5.03h-1.53V53.01z"/>
			<path class="st1" d="M90.5,57.79c0-2.85,2.05-4.94,4.86-4.94c2.71,0,4.64,1.87,4.64,4.56c0,0.24-0.04,0.53-0.06,0.79h-7.83
				c0.18,2.05,1.46,3.26,3.34,3.26c1.61,0,2.56-0.77,2.95-2.01l1.49,0.28c-0.47,1.91-2.16,3.11-4.44,3.11
				C92.43,62.84,90.5,60.72,90.5,57.79z M92.17,56.9h6.18c-0.12-1.61-1.36-2.71-2.99-2.71C93.81,54.19,92.49,55.17,92.17,56.9z"/>
		</g>
	</g>
	<g>
		<path class="st1" d="M65.46,3.13H34.91c-1.4,0-2.56,1.08-2.66,2.48l-2.53,35.61c-0.12,1.66,1.2,3.08,2.87,3.08h35.19
			c1.67,0,2.99-1.41,2.87-3.08L68.12,5.6C68.02,4.21,66.86,3.13,65.46,3.13z"/>
		<path class="st2" d="M60.67,31.81l-18.4,0c-0.99,0-1.8,0.81-1.8,1.8v0.67c0,0.99,0.81,1.8,1.8,1.8h17.71
			c0.21,0,0.38-0.17,0.38-0.38c0-0.21-0.17-0.38-0.38-0.38H42.27c-0.58,0-1.05-0.47-1.05-1.05v-0.67c0-0.58,0.47-1.05,1.05-1.05
			h18.4c0.58,0,1.05,0.47,1.05,1.05v2.89c0,0.58-0.47,1.05-1.05,1.05H39.7c-0.58,0-1.05-0.47-1.05-1.05v-4.81
			c0-0.58,0.47-1.05,1.05-1.05h22.38c0.21,0,0.38-0.17,0.38-0.38c0-0.21-0.17-0.38-0.38-0.38H39.7c-0.99,0-1.8,0.81-1.8,1.8v4.81
			c0,0.99,0.81,1.8,1.8,1.8h20.96c0.99,0,1.8-0.81,1.8-1.8v-2.89C62.47,32.61,61.66,31.81,60.67,31.81z"/>
		<path class="st2" d="M50.19,16.21c-4.37,0-7.92-3.55-7.92-7.92c0-0.57,0.46-1.03,1.03-1.03s1.03,0.46,1.03,1.03
			c0,3.23,2.63,5.86,5.86,5.86s5.86-2.63,5.86-5.86c0-0.57,0.46-1.03,1.03-1.03S58.1,7.73,58.1,8.3
			C58.1,12.66,54.55,16.21,50.19,16.21z"/>
		<path class="st0" d="M34.91,3.13h30.56c0.99,0,1.85,0.54,2.31,1.35l-0.13-1.88c-0.1-1.39-1.23-2.48-2.59-2.48H35.31
			c-1.36,0-2.49,1.08-2.59,2.48l-0.13,1.88C33.05,3.67,33.92,3.13,34.91,3.13z"/>
	</g>
</g>
</svg>
