<svg id="Capa_1" data-name="Capa 1" xmlns="http://www.w3.org/2000/svg" viewBox="0 0 334.48 69.81"><defs><style>.cls-1{fill:#e57307;}.cls-2{fill:#070707;}.cls-3{fill:#fdfbf8;}.cls-4{fill:#0b0b0b;}.cls-5{fill:#080808;}.cls-6{fill:#050505;}.cls-7{fill:#060606;}.cls-8{fill:#090909;}.cls-9{fill:#e57306;}.cls-10{fill:#e57305;}</style></defs><path class="cls-1" d="M325,51.59c-5.82,2.66-7.88,2.23-12.43-2.59s-4.72-5-9.44.09c-2.3,2.47-4.68,4.63-8.49,4-1.21-.2-2.51-.54-3.08-1.55-.75-1.34.8-2,1.5-2.73,2.52-2.82,5.07-5.63,7.77-8.3,1.53-1.51,1.59-2.59,0-4.14-2.89-2.85-5.51-5.94-8.37-8.81-1.95-1.95-.94-2.75,1-3.46,3.35-1.21,5.94.14,8.23,2.35,2.06,2,3.93,5.53,6.1,5.7s4-3.61,6-5.66C317.28,23,321,23.2,325,25.17V26c-3.43,3.57-6.86,7.15-10.31,10.7-1,1-1.64,1.92-.32,3.25,3.6,3.59,7.1,7.27,10.63,10.92Z"/><path class="cls-2" d="M48.66,15.07c3.5,1.29,3.65,2.77.93,5.41-4.77,4.64-9.2,9.62-13.7,14.52-1.37,1.5-2.28,1.47-3.65,0C27.77,30,23.34,25,18.55,20.41c-2.56-2.47-2.54-3.9.64-5.34h4c3.76,1.79,6.35,4.9,8.9,7.94,1.67,2,2.58,1.7,4.12-.07,2.53-2.9,5-5.88,8.48-7.87Z"/><path class="cls-3" d="M325,50.82c-3.53-3.65-7-7.33-10.63-10.92-1.32-1.33-.69-2.21.32-3.25,3.45-3.55,6.88-7.13,10.31-10.7Z"/><path class="cls-4" d="M220.76,31.35c0,4.68,0,9.25,0,13.81a7.56,7.56,0,0,1-5,7.62c-1.61.65-2.73.63-2.7-1.67.09-7.88,0-15.78,0-23.67,0-2.71,1.26-3.87,4.15-3.93,7.17-.13,8.92.83,11.91,7.24.93,2,1.87,4,3.1,6.58,1.41-2.94,2.58-5.4,3.77-7.85a10.57,10.57,0,0,1,13.16-5.83,3,3,0,0,1,2.25,3.26c0,8.15,0,16.3.07,24.45,0,2.17-1.2,2-2.55,1.46a7.47,7.47,0,0,1-5.17-7.52c0-4.59,0-9.18,0-14.66-2.28,2-2.72,4-3.57,5.77-1.82,3.72-3.48,7.51-5.27,11.25-.59,1.24-.95,3-2.77,2.88-1.56-.06-1.94-1.61-2.48-2.75-2.23-4.68-4.36-9.4-6.6-14.07C222.66,32.88,222.66,31.65,220.76,31.35Z"/><path class="cls-5" d="M271.16,53.26c-2.39,0-4.78.07-7.16,0-5.05-.2-8-2.81-8.18-7.66s-.2-9.59,0-14.37,3.16-7.45,7.86-7.6c4.9-.15,9.82-.14,14.72,0,4.66.13,7.52,2.61,7.82,7.12a131.79,131.79,0,0,1,.11,14.74c-.23,5.15-3.09,7.62-8.42,7.78C275.67,53.32,273.41,53.26,271.16,53.26Zm7.62-14.53c-.1-8.36,1.24-7.68-7.79-7.67-8.65,0-7.43-.71-7.42,7.16,0,8.37-1.35,7.69,7.69,7.72C279.76,46,278.75,46.34,278.78,38.73Z"/><path class="cls-6" d="M154.83,53.25c-2.39,0-4.78.08-7.16,0-5.21-.19-8-2.92-8.18-8-.13-4.52-.14-9,0-13.58.16-5,3.09-7.89,8.25-8,4.77-.11,9.55-.13,14.32,0s7.66,2.8,7.88,7.5.23,9.57,0,14.35c-.2,5.11-3,7.63-8.39,7.79C159.34,53.31,157.08,53.26,154.83,53.25Zm-7.64-15c.1,8.43-1.17,7.66,7.77,7.7,8.35,0,7.54.4,7.5-7.27,0-8.33,1.14-7.64-7.85-7.63C146,31.06,147.3,30.34,147.19,38.25Z"/><path class="cls-7" d="M129.16,44.22c1.44,2,2.93,4,4.3,6,.45.68,1.59,1.27.88,2.3-.59.85-1.68.61-2.57.66-3.67.23-6.08-1.81-7.58-4.67-2.11-4-5.26-5.23-9.65-4.65-1.57.2-2.32.41-2.46,2.11a7.13,7.13,0,0,1-1.84,4.59c-1.41,1.44-3.13,3-5.08,2.34-1.58-.54-.67-2.7-.69-4.12-.08-7,0-14-.07-20.92,0-3.12,1.23-4.44,4.48-4.36,5.82.14,11.65,0,17.47.06,5.48.07,8.27,2.68,8.72,8C135.7,38.82,134.78,40.79,129.16,44.22Zm-9.94-6.67c1.72,0,3.44-.06,5.15,0,2.51.09,3.12-1.24,3.13-3.41s-.84-3.12-3-3.1c-3.17,0-6.35.14-9.51-.05-2.34-.14-2.69.8-2.86,2.85-.25,3.13.89,4.17,3.94,3.72A22.34,22.34,0,0,1,119.22,37.55Z"/><path class="cls-8" d="M69.37,53.17c0-8.85,0-17.14,0-25.42,0-2.93,1.13-4.27,4.23-4.22,6,.11,12,0,17.92.06,5.26.08,8,2.68,8.55,7.78.11,1.16.06,2.33.06,3.49,0,8.68-2.46,11.1-11.26,11.11-2.13,0-4.25.08-6.37,0-3.07-.14-5.8-.41-6.83,3.68C75,52.09,72.35,53.12,69.37,53.17ZM84.18,39.29c1.72,0,3.45-.08,5.16,0,3,.17,3.14-1.66,3-3.79s.57-4.43-2.8-4.44c-3.58,0-7.16,0-10.74,0-1.08,0-1.57.32-1.8,1.49-1.07,5.51-.12,6.73,5.54,6.73Z"/><path class="cls-9" d="M179.44,23.63c3.72.2,5.71,2.48,7.77,4.7,4.35,4.67,4.37,4.67,8.64,0,2.33-2.54,4.65-5.07,8.63-4.6,1.33.15,2.85.51,3.45,1.66s-.9,2-1.62,2.76c-2.45,2.72-4.85,5.5-7.54,8-1.94,1.8-1.63,3,.11,4.65,2.82,2.72,5.32,5.76,8.11,8.51,2,2,.86,2.86-1,3.48-3.43,1.14-6.19-.1-8.55-2.56-1.9-2-3.72-5.27-5.81-5.45-2.27-.2-3.84,3.46-5.77,5.39-2.4,2.39-5.1,3.75-8.55,2.67-2-.64-3.24-1.53-1-3.65,2.94-2.79,5.51-5.94,8.38-8.8,1.42-1.42,1.45-2.44,0-3.86-2.6-2.58-5.08-5.28-7.53-8-.83-.93-2.6-1.87-2-3.06C176,24,178,23.73,179.44,23.63Z"/><path class="cls-1" d="M11.83,55.62a10,10,0,0,1-2.32-.43c-2.26-.82-3.29-1.87-1.06-4.07,3.54-3.5,6.76-7.29,10.26-10.83,1.41-1.43,1.44-2.36,0-3.81C15.22,33,12,29.15,8.46,25.66c-2.24-2.21-1.23-3.3,1.07-4.05a8.52,8.52,0,0,1,9.15,2.07C22.92,28,27,32.42,31.11,36.78c.91,1,1.35,1.79.22,3-4.45,4.61-8.8,9.31-13.28,13.89C16.64,55.08,14.71,55.69,11.83,55.62Z"/><path class="cls-10" d="M56.65,55.58a9,9,0,0,1-7.64-3C45,48.43,41.16,44.17,37.16,40c-1.11-1.15-1.33-1.93-.1-3.19,4.12-4.21,8.07-8.58,12.16-12.81A8.64,8.64,0,0,1,59,21.75c2.06.76,3,1.71.91,3.77C56.36,29,53.15,32.8,49.64,36.32c-1.52,1.52-1.64,2.51,0,4.08C52.85,43.61,56,47,59,50.41c.85,1,2.9,1.7,2,3.28-.75,1.31-2.51,1.82-4.18,1.88C56.41,55.59,56,55.65,56.65,55.58Z"/><path class="cls-2" d="M47.17,61.65c-3.65-.09-5.86-2.27-8-4.62-4.94-5.36-5-5.34-10-.07-4.24,4.47-7.32,5.61-11,4-1.58-.7-2.8-1.31-.93-3.23,5.12-5.23,10.11-10.59,15.06-16,1.21-1.33,2-1.64,3.37-.17,5,5.49,10.17,10.88,15.24,16.33.49.52,1.46,1.14.75,1.91A7,7,0,0,1,47.17,61.65Z"/></svg>