<svg id="filled_outline" height="512" viewBox="0 0 512 512" width="512" xmlns="http://www.w3.org/2000/svg" data-name="filled outline"><path d="m104 56h336v288h-336z" fill="#e5e7e9"/><path d="m360 200a80.00349 80.00349 0 1 1 -80-80v40a40.01642 40.01642 0 0 0 -39.2 32 40.57337 40.57337 0 0 0 -.8 8 40 40 0 0 0 80 0z" fill="#f07f2f"/><path d="m152 344h320v32h-320z" fill="#009ff5"/><path d="m72 24h400v32h-400z" fill="#009ff5"/><path d="m232 248v16h-56l-16-8h-8v-64h8l24 32z" fill="#de6a1e"/><path d="m160 312 24 88v88h-24l-16-88-16-32h-8v-56z" fill="#42566b"/><path d="m160 280v32l-24 32-16 48-48 96h-24l24-104v-104z" fill="#4d6378"/><path d="m80 280h80v-82.66667a40 40 0 0 0 -8-24l-16-21.33333h-32l-30.502 15.251a40 40 0 0 0 -21.33468 27.93245l-12.16332 60.81655 16 64h24z" fill="#f07f2f"/><path d="m80 288h-32l8 32h24z" fill="#f5c99d"/><path d="m352 168a40 40 0 0 0 -40-40v-40a80 80 0 0 1 80 80z" fill="#f07f2f"/><path d="m280 280v-40a40 40 0 0 0 40-40h40v.00008a79.99991 79.99991 0 0 1 -79.99992 79.99992z" fill="#de6a1e"/><path d="m280 120v40a40.01642 40.01642 0 0 0 -39.2 32l-39.19-8a80.01363 80.01363 0 0 1 78.39-64z" fill="#fa9e54"/><path d="m232 248v16h-40l8-32z" fill="#f5c99d"/><path d="m144 112v24a24 24 0 0 1 -24 24 24 24 0 0 1 -24-24v-24z" fill="#f5c99d"/><path d="m96 112h48v-13.57781a18.42218 18.42218 0 0 0 -18.42219-18.42219 18.42223 18.42223 0 0 0 -10.21881 3.094l-19.359 12.906z" fill="#b1792c"/><path d="m472 16h-400a8.00008 8.00008 0 0 0 -8 8v32a8.00008 8.00008 0 0 0 8 8h24v22.38525l-4.4375 2.9585a7.99943 7.99943 0 0 0 -3.5625 6.65625v40a31.80151 31.80151 0 0 0 3.01813 13.54688l-21.09772 10.54882a47.69205 47.69205 0 0 0 -25.60205 33.51856l-12.16309 60.8164a8.00316 8.00316 0 0 0 .0835 3.50977l16 64a8.00005 8.00005 0 0 0 7.76123 6.05957h8v55.08887l-23.79492 103.1123a7.99952 7.99952 0 0 0 7.79492 9.79883h24a7.99967 7.99967 0 0 0 7.15527-4.42188l48-96a8.02572 8.02572 0 0 0 .43409-1.04785l1.89257-5.67773 6.85157 13.70312 15.79541 86.875a8.00006 8.00006 0 0 0 7.87109 6.56934h24a8.00008 8.00008 0 0 0 8-8v-88a7.998 7.998 0 0 0 -.28174-2.10449l-3.78967-13.89551h76.07141v13.66992l-54.74951 86.03516a8.00014 8.00014 0 0 0 13.499 8.58984l17.3678-27.292 28.30505 14.15234a7.99846 7.99846 0 0 0 7.15528 0l28.30505-14.15234 17.3678 27.292a8.00014 8.00014 0 0 0 13.499-8.58984l-54.74947-86.03516v-13.66992h192a8.00008 8.00008 0 0 0 8-8v-32a8.00008 8.00008 0 0 0 -8-8h-24v-272h24a8.00008 8.00008 0 0 0 8-8v-32a8.00008 8.00008 0 0 0 -8-8zm-208 411.47266v31.583l-15.247-7.623zm31.247 23.96-15.247 7.623v-31.583zm-191.247-315.43266v-16h32v16a16 16 0 0 1 -32 0zm32-32h-32v-3.71875l15.79639-10.53125a10.42283 10.42283 0 0 1 16.20361 8.67188zm-75.99219 92.75293a31.79532 31.79532 0 0 1 17.06787-22.34668l24.51392-12.25684a31.83033 31.83033 0 0 0 12.4563 5.28663l5.9541 17.86181v46.70215h16v-48a8.00643 8.00643 0 0 0 -.41064-2.53027l-5.08338-15.25a31.84261 31.84261 0 0 0 4.63263-2.0354l10.46149 13.94848a32.201 32.201 0 0 1 6.3999 19.20019v74.667h-64v-14.459l15.42773-38.57032-14.85546-5.9414-16 40a7.99723 7.99723 0 0 0 -.57227 2.97072v24h-17.75391l-6.04882-24.19531zm117.59229 32.04687a7.9959 7.9959 0 0 0 2.82226 2.35547l10.26 5.13013-4.9287 19.7146h-7.865l-9.88866-4.94409v-35.05615zm94.3999-100.35839v24.22559a48.15381 48.15381 0 0 0 -36.76648 30.03052l-23.73212-4.84424a72.18491 72.18491 0 0 1 60.4986-49.41187zm-64 71.55859c0-2.18164.10547-4.33887.29645-6.47192l23.7406 4.84594c-.01813.54077-.037 1.08106-.037 1.626a48.0686 48.0686 0 0 0 40 47.32056v24.23315a71.10135 71.10135 0 0 1 -32-11.69043v-11.8633a7.99869 7.99869 0 0 0 -4.42236-7.15527l-20.82709-10.41358a71.28841 71.28841 0 0 1 -6.7506-30.43115zm80 71.54053v-24.218a48.11789 48.11789 0 0 0 39.3335-39.32253h24.22509a72.13071 72.13071 0 0 1 -63.55859 63.54053zm-64-18.59619v3.05566h-21.75366l3.09613-12.38452zm-165.75391 43.05566h13.75391v16h-9.75391zm8.80957 184h-8.999l21.73828-94.20117a7.99388 7.99388 0 0 0 .20506-1.79883v-56a8.00008 8.00008 0 0 0 8-8v-32h64v21.333l-22.3999 29.8672a7.99185 7.99185 0 0 0 -1.18946 2.26953l-15.82031 47.46093zm108.94434 0h-9.32324l-14.80567-81.43066a8.00358 8.00358 0 0 0 -.71582-2.14746l-14.51794-29.03565 6.54138-19.62451 13.407-17.876 19.41429 71.18557zm288-112h-280.43506l-4.36365-16h284.79871zm-32-32h-257.16235l-6.83765-25.07129v-41.98437l4.42236 2.21093a7.99583 7.99583 0 0 0 3.57764.84473h53.41345a87.898 87.898 0 0 0 111.10224-8.17041l13.82757 13.82764a8.00035 8.00035 0 0 0 5.65674 2.34277h40v-16h-36.68652l-12.21222-12.21265a87.52342 87.52342 0 0 0 16.89874-51.78735 8.00008 8.00008 0 0 0 -8-8h-40a8.00008 8.00008 0 0 0 -8 8 32 32 0 1 1 -32-32 8.00008 8.00008 0 0 0 8-8v-40a8.00008 8.00008 0 0 0 -8-8 87.599 87.599 0 0 0 -56.28094 20.405l-10.06232-10.06226a8.00035 8.00035 0 0 0 -5.65674-2.34274h-40v16h36.68652l7.71863 7.719a88.09878 88.09878 0 0 0 -18.07733 76.50074l-5.06073-2.53028-22.17731-29.56933a48.28081 48.28081 0 0 0 -8.68988-19.58692l-11.4659-15.2876a31.80071 31.80071 0 0 0 5.066-17.24561v-37.57812a26.39793 26.39793 0 0 0 -40-22.64771v-11.77417h320zm32-288h-384v-16h384z"/><path d="m312 136a32.03635 32.03635 0 0 1 32 32 8.00008 8.00008 0 0 0 8 8h40a8.00008 8.00008 0 0 0 8-8 88.09957 88.09957 0 0 0 -88-88 8.00008 8.00008 0 0 0 -8 8v40a8.00008 8.00008 0 0 0 8 8zm8-39.55859a72.14553 72.14553 0 0 1 63.55859 63.55859h-24.22509a48.125 48.125 0 0 0 -39.3335-39.333z"/><path d="m216 88h16v16h-16z"/><path d="m168 88h32v16h-32z"/><path d="m336 296h16v16h-16z"/><path d="m368 296h32v16h-32z"/><path d="m232 296h16v16h-16z"/><path d="m184 296h32v16h-32z"/></svg>