<svg viewBox="0 -31 512 512" xmlns="http://www.w3.org/2000/svg"><path d="m0 0h512v360h-512zm0 0" fill="#fdbf00"/><path d="m256 0h256v360h-256zm0 0" fill="#ff9f00"/><path d="m451 90v180h-15c-8.402344 0-15 6.597656-15 15v15h-330v-15c0-8.402344-6.597656-15-15-15h-15v-180h15c8.402344 0 15-6.601562 15-15v-15h330v15c0 8.398438 6.597656 15 15 15zm0 0" fill="#ececf1"/><path d="m451 90v180h-15c-8.402344 0-15 6.597656-15 15v15h-165v-240h165v15c0 8.398438 6.597656 15 15 15zm0 0" fill="#e2e2e7"/><path d="m121 120h270v30h-270zm0 0" fill="#d3d3d8"/><path d="m301 300v150l-45-60-45 60v-150zm0 0" fill="#ff7816"/><path d="m301 300v150l-45-60v-90zm0 0" fill="#ff4b00"/><path d="m256 120h135v30h-135zm0 0" fill="#babac0"/><path d="m256 180c-41.398438 0-75 33.601562-75 75s33.601562 75 75 75 75-33.601562 75-75-33.601562-75-75-75zm0 0" fill="#ffe470"/><path d="m331 255c0 41.398438-33.601562 75-75 75v-150c41.398438 0 75 33.601562 75 75zm0 0" fill="#ffd400"/><path d="m256 210c-24.902344 0-45 20.097656-45 45 0 24.898438 20.097656 45 45 45s45-20.101562 45-45c0-24.902344-20.097656-45-45-45zm0 0" fill="#fdbf00"/><path d="m301 255c0 24.898438-20.097656 45-45 45v-90c24.902344 0 45 20.097656 45 45zm0 0" fill="#ff9f00"/></svg>