<svg id="Area_Trabajo_1" data-name="Area Trabajo 1" xmlns="http://www.w3.org/2000/svg" xmlns:xlink="http://www.w3.org/1999/xlink" viewBox="0 0 500 500"><defs><style>.cls-1{fill:url(#Degradado_sin_nombre_2);}.cls-2{fill:#fff;}</style><linearGradient id="Degradado_sin_nombre_2" x1="-47.36" y1="631.33" x2="-47.36" y2="643.29" gradientTransform="matrix(40, 0, 0, -39.78, 2145, 25591.22)" gradientUnits="userSpaceOnUse"><stop offset="0" stop-color="#0062e0"/><stop offset="1" stop-color="#19afff"/></linearGradient></defs><g id="Capa_28" data-name="Capa 28"><path class="cls-1" d="M209.42,492.73C93,472.18,4,370.85,4,249,4,113.39,114.93,2.47,250.5,2.47S497,113.39,497,249c0,121.88-89,223.21-205.42,243.76l-13.69-11H223.11Z"/><path class="cls-2" d="M346.36,317.44l11-68.47H291.58V201c0-19.17,6.85-34.23,37-34.23h31.5v-63c-17.81-2.73-37-5.47-54.78-5.47-56.15,0-95.86,34.23-95.86,95.86V249H147.79v68.47h61.63V491.36a207.36,207.36,0,0,0,82.16,0V317.44Z"/></g></svg>