<svg id="Area_Trabajo_1" data-name="Area Trabajo 1" xmlns="http://www.w3.org/2000/svg" xmlns:xlink="http://www.w3.org/1999/xlink" viewBox="0 0 500 500"><defs><style>.cls-1{fill:url(#linear-gradient);}.cls-2{fill:#fff;fill-rule:evenodd;}</style><linearGradient id="linear-gradient" x1="250.5" y1="-267.8" x2="250.5" y2="542.9" gradientUnits="userSpaceOnUse"><stop offset="0.32" stop-color="#20a9e5"/><stop offset="0.67" stop-color="#1686c3"/></linearGradient></defs><g id="Twiter-mejorado"><path class="cls-1" d="M497,249.5C497,385.5,386.59,496,250.56,496,114.3,496,4,385.5,4,249.5,4,113.27,114.3,3,250.56,3,386.59,3,497,113.27,497,249.5Z"/><path class="cls-2" d="M101.31,349.78c23.45,1.49,46.19-2,67.56-11.6A121.91,121.91,0,0,0,196,322a66.86,66.86,0,0,1-28-7c-14.48-7.35-24.7-19-30.91-34.57-1.38-3.45-1.38-3.45,2.42-3.22,10.33,1,17.92.81,23.78-1.61-5.62-1.95-10.92-2.87-15.28-5.85-21.6-12-33.09-30.44-35-55.14-.24-2.87.58-3.22,3.21-2,7.59,4.13,15.86,6,25.39,7-4.13-3.79-7.69-6.77-10.91-10-17.93-19.3-22.17-50-10.23-73.51,1.61-3.1,2.19-3.1,4.38-.58,30.21,34.69,67.77,55.83,113.05,63.06,4.6.81,9.64.92,14.36,1.84,3.21.46,3.55-1,3.09-3.44a64.78,64.78,0,0,1,32.18-67.77c24.59-14.36,56.52-9.77,76.29,9.53a7.26,7.26,0,0,0,7.13,1.72,127.79,127.79,0,0,0,34.23-13.32,9.65,9.65,0,0,0,2.75-1.72c-4.6,15.27-13.78,26.53-27.34,35.72,12.52-1.26,23.78-4.83,34.93-9.19.23,1.61-.93,2.53-1.61,3.68a124.76,124.76,0,0,1-26.88,27.45c-1.95,1.61-2.41,2.87-2.41,5.4.8,47.44-14.37,89.71-44.7,126.46-28.49,33.43-64.92,53.65-108.22,60.65-46,7.24-89.17-.57-128.91-25C102.24,350.24,101.66,349.78,101.31,349.78Z"/></g></svg>