<svg xmlns="http://www.w3.org/2000/svg" viewBox="0 0 296.17 91.52"><defs><style>.cls-1,.cls-2{fill:#fff;}.cls-2{opacity:0.9;isolation:isolate;font-size:16.83px;font-family:Constantia-Bold, Constantia;font-weight:700;letter-spacing:0.09em;}.cls-3{letter-spacing:0.1em;}.cls-4{letter-spacing:0.09em;}.cls-5{letter-spacing:0.08em;}</style></defs><g id="Capa_2" data-name="Capa 2"><path class="cls-1" d="M52.58,61.34,69,37.14a36.5,36.5,0,0,1,4.31-4.64,8.07,8.07,0,0,1,10.47,0,18.55,18.55,0,0,1,3.9,4.64c4.93,7.52,10.78,17,10.78,17l4.93,7.53H68l5.85-7.53H87.38L78.14,39.75l-14.78,22H52.28Z"/><polygon class="cls-1" points="240.2 30.53 251.06 30.53 264.63 51.37 279.72 30.53 290.28 30.53 288.86 33.03 266.14 58.31 262.83 57.68 240.2 30.53"/><path class="cls-1" d="M236.48,30.53H211.37S197,33.44,197,45.74s13.18,16.48,13.18,16.48h21.13l5.22-7.45H212.89s-6.43-1.62-6.43-7.77,4.6-9.08,6.12-9.08h18.69l5.22-7.12v-.27Z"/><polygon class="cls-1" points="182.56 30.53 191.91 30.53 191.91 62.8 182.56 62.8 182.56 30.86 182.56 30.53"/><path class="cls-1" d="M125.79,51.7l-1-1.7,11.69-22.87,12.62,24.12q3-6,6-12.08l3.41,6.34-7.07,11.16-6.12-3.6-7.37-17.26Z"/><polygon class="cls-1" points="105.56 61.94 131.92 8.24 149.5 43.64 157.14 28.51 158.92 24.96 176.82 61.55 168.69 61.94 155.67 35.09 149.16 47.93 135.82 22.64 116.95 61.94 105.56 61.94"/><path class="cls-1" d="M50.5,30.57l-5.18,7.6H26.75s-7.06,2.3-7.06,8.25S26.75,55,26.75,55l23.75.33-5.18,7.61H26.75s-17-2.32-17-16.52,10-15.85,17-15.85Z"/><path class="cls-1" d="M50.19,31.75l-4.83,7.33H27.87S21.24,41.3,21.24,47s6.63,8.28,6.63,8.28l22.32.32-4.83,7.32H27.87s-16-2.23-16-15.92,9.36-15.28,16-15.28Z"/><path class="cls-1" d="M53.21,62.6,69.3,38.34a35.62,35.62,0,0,1,4.28-4.64,7.7,7.7,0,0,1,10.26,0,18.32,18.32,0,0,1,3.82,4.64c4.83,7.53,10.56,17,10.56,17l4.83,7.55H68.29L74,55.39H87.31L78.25,41l-14.49,22H52.89Z"/><polygon class="cls-1" points="106.19 62.94 132.14 9.84 149.46 44.85 158.75 26.39 176.38 62.57 168.37 62.94 155.54 36.4 149.14 49.09 135.99 24.07 117.4 62.94 106.19 62.94"/><polygon class="cls-1" points="125.21 51.48 137.18 28.26 149.49 52.57 155.78 39.88 158.94 46.04 147.28 68.53 134.98 44.59 128.68 57.29 125.21 51.48"/><polygon class="cls-1" points="183.08 31.72 191.53 31.72 191.53 62.94 183.08 62.94 183.08 32.04 183.08 31.72"/><path class="cls-1" d="M236.18,31.72H211.44s-14.18,2.83-14.18,14.76,13,16,13,16h20.81l5.13-7.23H213s-6.34-1.57-6.34-7.54,4.53-8.8,6-8.8h18.4L236.18,32v-.31Z"/><path class="cls-1" d="M240.35,31.72h10L264.8,52.43l15.08-20.71h10L269.66,61.09a5.91,5.91,0,0,1-4.52,1.84,7.09,7.09,0,0,1-4.83-1.84Z"/><path class="cls-1" d="M125,24.47l4-2.82s2.27,3.87,3.27,2.82L135,21.65l4.38,2.82L132.14,9.76Z"/><path class="cls-1" d="M155.5,32.87s2.47-.66,2.78-1.5c0,0,0,0,.07,0,.93,1.38,4,2.36,4,2.36l-3.59-7.39Z"/><text class="cls-2" transform="translate(72.98 84.1)">C<tspan class="cls-3" x="12.65" y="0">ompa</tspan><tspan class="cls-4" x="64.78" y="0">n</tspan><tspan class="cls-5" x="77.04" y="0">y</tspan><tspan class="cls-3" x="87.01" y="0" xml:space="preserve"> S.A.C.</tspan></text></g></svg>