<svg id="Capa_1" data-name="Capa 1" xmlns="http://www.w3.org/2000/svg" viewBox="0 0 296.17 91.52"><defs><style>.cls-1{fill:#0260c2;}.cls-2{fill:#e69901;}.cls-3{fill:#007eff;}.cls-4{fill:#ffb300;}.cls-5{fill:#fff;}.cls-6{opacity:0.9;isolation:isolate;font-size:17.13px;font-family:Constantia-Bold, Constantia;font-weight:700;letter-spacing:0.09em;}.cls-7{letter-spacing:0.1em;}.cls-8{letter-spacing:0.09em;}.cls-9{letter-spacing:0.08em;}.cls-10{letter-spacing:0.1em;}</style></defs><path class="cls-1" d="M49.91,58.75,66.62,34.12A36.42,36.42,0,0,1,71,29.4a8.2,8.2,0,0,1,10.65,0,18.63,18.63,0,0,1,4,4.72c5,7.65,11,17.3,11,17.3l5,7.67h-36l6-7.67H85.32l-9.4-14.65-15,22.34H49.6Z"/><polygon class="cls-2" points="240.86 27.39 251.9 27.39 265.72 48.59 281.08 27.39 291.82 27.39 290.38 29.93 267.25 55.66 263.88 55.02 240.86 27.39"/><path class="cls-2" d="M237.07,27.39H211.51s-14.66,3-14.66,15.48,13.42,16.77,13.42,16.77h21.51l5.3-7.58h-24s-6.55-1.65-6.55-7.91,4.68-9.24,6.23-9.24h19l5.31-7.25v-.27Z"/><polygon class="cls-2" points="182.19 27.39 191.7 27.39 191.7 60.23 182.19 60.23 182.19 27.73 182.19 27.39"/><path class="cls-1" d="M124.42,48.94l-1-1.74,11.89-23.27q6.42,12.27,12.85,24.55l6.06-12.3c1.15,2.15,2.31,4.3,3.46,6.46L150.44,54l-6.23-3.66-7.5-17.57Z"/><polygon class="cls-2" points="103.83 59.35 130.65 4.7 148.54 40.73 156.32 25.33 158.14 21.73 176.35 58.96 168.07 59.35 154.83 32.03 148.2 45.1 134.62 19.36 115.41 59.35 103.83 59.35"/><path class="cls-1" d="M47.79,27.43l-5.27,7.73H23.62s-7.19,2.35-7.19,8.4,7.19,8.73,7.19,8.73l24.17.34-5.27,7.74H23.62S6.3,58,6.3,43.56,16.43,27.43,23.62,27.43Z"/><path class="cls-3" d="M47.48,28.63l-4.92,7.46H24.76S18,38.35,18,44.17s6.75,8.42,6.75,8.42l22.72.33-4.92,7.45H24.76S8.49,58.1,8.49,44.17,18,28.62,24.76,28.62Z"/><path class="cls-3" d="M50.55,60,66.93,35.34a36.21,36.21,0,0,1,4.35-4.73,7.85,7.85,0,0,1,10.44,0,18.8,18.8,0,0,1,3.89,4.73C90.52,43,96.36,52.69,96.36,52.69l4.91,7.68H65.9l5.83-7.68H85.25L76,38,61.29,60.36H50.23Z"/><polygon class="cls-4" points="104.47 60.37 130.88 6.33 148.5 41.97 157.96 23.17 175.9 59.99 167.75 60.37 154.69 33.36 148.18 46.28 134.8 20.82 115.88 60.37 104.47 60.37"/><polygon class="cls-3" points="123.83 48.71 136.01 25.08 148.53 49.82 154.94 36.91 158.15 43.17 146.28 66.07 133.76 41.69 127.36 54.63 123.83 48.71"/><polygon class="cls-4" points="182.72 28.6 191.32 28.6 191.32 60.37 182.72 60.37 182.72 28.93 182.72 28.6"/><path class="cls-4" d="M236.76,28.6H211.59s-14.44,2.88-14.44,15,13.21,16.32,13.21,16.32h21.18l5.22-7.36H213.12s-6.45-1.6-6.45-7.68S211.28,36,212.82,36h18.72l5.23-7V28.6Z"/><path class="cls-4" d="M241,28.6h10.14l14.75,21.08L281.24,28.6h10.15L270.84,58.49a6.09,6.09,0,0,1-4.61,1.88,7.26,7.26,0,0,1-4.91-1.88Z"/><path class="cls-5" d="M123.6,21.23l4.13-2.87s2.3,3.93,3.32,2.87,2.74-2.87,2.74-2.87l4.46,2.87-7.37-15Z"/><path class="cls-5" d="M154.65,29.77s2.51-.68,2.83-1.53c0,0,0,0,.07,0,.95,1.4,4.1,2.4,4.1,2.4L158,23.12Z"/><text class="cls-6" transform="translate(70.67 81.91)">C<tspan class="cls-7" x="12.87" y="0">ompa</tspan><tspan class="cls-8" x="65.93" y="0">n</tspan><tspan class="cls-9" x="78.41" y="0">y</tspan><tspan class="cls-10" x="88.56" y="0" xml:space="preserve"> S.A.C.</tspan></text></svg>