<svg height="511pt" viewBox="1 0 511.99998 511" width="511pt" xmlns="http://www.w3.org/2000/svg"><path d="m189.847656 204.230469c-2.652344-4.035157-8.664062-3.914063-11.148437.222656l-177.695313 295.996094c-2.804687 4.667969.597656 10.578125 6.085938 10.578125h71.257812l147.789063-246.179688zm0 0" fill="#feca57"/><path d="m21.609375 500.449219 173.027344-288.21875-4.789063-8c-2.652344-4.035157-8.664062-3.914063-11.148437.222656l-177.695313 295.996094c-2.804687 4.667969.597656 10.574219 6.085938 10.574219h20.605468c-5.488281.003906-8.890624-5.90625-6.085937-10.574219zm0 0" fill="#f4b537"/><path d="m189.847656 204.230469c-2.652344-4.035157-8.664062-3.914063-11.148437.222656l-54.429688 90.671875 10.054688 12.375c2.382812 2.933594 6.289062 2.933594 8.675781 0l14.234375-17.519531c1.589844-1.957031 4.601563-1.957031 6.195313 0l27.386718 33.707031 35.320313-58.839844zm0 0" fill="#f4b537"/><path d="m178.699219 204.453125-54.429688 90.671875 10.050781 12.375c.621094.761719 1.339844 1.320312 2.109376 1.6875l58.207031-96.957031c-1.585938-2.648438-3.199219-5.339844-4.789063-8-1.457031-2.214844-3.980468-3.234375-6.4375-2.886719-1.863281.257812-3.625 1.300781-4.710937 3.109375zm0 0" fill="#e59d1f"/><path d="m427.667969 53.101562h-47.867188v22.808594c0 3.3125-2.683593 5.996094-5.996093 5.996094h-26.535157v30.222656c0 2.628906 2.132813 4.761719 4.761719 4.761719h75.636719c2.628906 0 4.761719-2.132813 4.761719-4.761719v-54.269531c0-2.625-2.132813-4.757813-4.761719-4.757813zm0 0" fill="#ee5253"/><path d="m379.800781 53.101562v22.808594c0 3.3125-2.683593 5.996094-5.996093 5.996094h-26.535157v23.695312h29.628907c14.667968 0 26.597656-11.933593 26.597656-26.601562v-25.898438zm0 0" fill="#d83941"/><path d="m376.898438 21.210938h-79.164063v63.785156h79.164063c3.308593 0 5.996093-2.683594 5.996093-5.996094v-51.792969c0-3.3125-2.6875-5.996093-5.996093-5.996093zm0 0" fill="#ff6b6b"/><path d="m297.734375 21.210938h28.332031v63.785156h-28.332031zm0 0" fill="#ee5253"/><path d="m297.734375 164.574219c-4.265625 0-7.726563-3.460938-7.726563-7.726563v-148.621094c0-4.265624 3.460938-7.726562 7.726563-7.726562 4.269531 0 7.726563 3.460938 7.726563 7.726562v148.621094c0 4.265625-3.457032 7.726563-7.726563 7.726563zm0 0" fill="#e4eaf8"/><path d="m510.925781 499.515625-206.632812-349.039063c-3.082031-4.742187-10.066407-4.597656-12.953125.261719l-213.867188 360.289063h426.890625c5.90625 0 9.570313-6.429688 6.5625-11.511719zm0 0" fill="#f4b537"/><path d="m304.292969 150.472656c-3.082031-4.738281-10.066407-4.597656-12.953125.265625l-213.867188 360.289063h20.601563l210.117187-353.964844zm0 0" fill="#e59d1f"/><path d="m304.292969 150.476562c-3.082031-4.742187-10.066407-4.597656-12.953125.261719l-78.761719 132.683594 19.34375 24.078125c2.359375 2.933594 6.222656 2.933594 8.582031 0l14.074219-17.519531c1.570313-1.957031 4.550781-1.957031 6.125 0l31.894531 39.699219c2.785156 3.46875 7.347656 3.46875 10.136719 0l31.894531-39.699219c1.570313-1.957031 4.554688-1.957031 6.125 0l14.074219 17.519531c2.359375 2.933594 6.222656 2.933594 8.582031 0l19.484375-24.253906zm0 0" fill="#e59d1f"/><path d="m212.578125 283.421875 11.851563 14.746094 83.761718-141.105469c-.945312-1.601562-.242187-.414062-3.898437-6.589844-1.34375-2.066406-3.726563-3.523437-6.550781-3.46875-2.574219.054688-5 1.371094-6.402344 3.734375zm0 0" fill="#e08917"/></svg>