<svg id="Icon_Set" enable-background="new 0 0 256 256" height="512" viewBox="0 0 256 256" width="512" xmlns="http://www.w3.org/2000/svg"><path d="m189.519 21.285c-33.972 0-61.519 12.697-61.519 28.384 0-15.687-27.547-28.384-61.519-28.384s-61.519 12.697-61.519 28.384v152.704 1.094h.051 122.936.103 122.936.051v-1.094-152.704c-.001-15.687-27.547-28.384-61.52-28.384z" fill="#ffe2e2"/><path d="m251.04 49.666v153.8h-15v-153.8c0-14.51-23.58-26.46-54.02-28.17 2.46-.14 4.96-.21 7.5-.21 33.97 0 61.52 12.7 61.52 28.38z" fill="#ffcfcf"/><path d="m73.98 21.496c-30.44 1.71-54.02 13.66-54.02 28.17v153.8h-15v-153.8c0-15.68 27.55-28.38 61.52-28.38 2.54 0 5.04.07 7.5.21z" fill="#ffefee"/><path d="m251.038 202.373c0 .359-.017.735-.051 1.094h-122.936c-.034-.359-.051-.735-.051-1.094 0-15.67 27.547-28.384 61.519-28.384s61.519 12.714 61.519 28.384z" fill="#ffe2e2"/><path d="m128 202.373c0 .359-.017.735-.051 1.094h-122.936c-.034-.359-.051-.735-.051-1.094 0-15.67 27.547-28.384 61.519-28.384s61.519 12.714 61.519 28.384z" fill="#ffe2e2"/><path d="m251.04 202.376c0 .36-.02.73-.05 1.09h-15c.03-.36.05-.73.05-1.09 0-14.5-23.58-26.47-54.02-28.18 2.46-.14 4.96-.21 7.5-.21 33.97 0 61.52 12.72 61.52 28.39z" fill="#ffcfcf"/><path d="m143 202.376c0 .36.02.73.05 1.09h-15c-.03-.36-.05-.73-.05-1.09 0-15.67 27.55-28.39 61.52-28.39 2.54 0 5.04.07 7.5.21-30.44 1.71-54.02 13.68-54.02 28.18z" fill="#ffefee"/><path d="m128 202.376c0 .36-.02.73-.05 1.09h-15c.03-.36.05-.73.05-1.09 0-14.5-23.58-26.47-54.02-28.18 2.46-.14 4.96-.21 7.5-.21 33.97 0 61.52 12.72 61.52 28.39z" fill="#ffcfcf"/><path d="m19.96 202.376c0 .36.02.73.05 1.09h-15c-.03-.36-.05-.73-.05-1.09 0-15.67 27.55-28.39 61.52-28.39 2.54 0 5.04.07 7.5.21-30.44 1.71-54.02 13.68-54.02 28.18z" fill="#ffefee"/><path d="m124.52 61c-24.472 1.684-44.207 21.662-45.622 46.151-.611 10.578 2.128 20.479 7.249 28.75 4.949 7.993 7.581 17.201 7.581 26.602v28.161h66.105v-24.407c0-10.044 2.871-19.943 8.599-28.193 5.517-7.945 8.752-17.592 8.752-27.999.002-28.315-23.925-51.042-52.664-49.065z" fill="#f9d335"/><path d="m101.15 135.901c4.95 7.99 7.58 17.2 7.58 26.6v28.16h-15v-28.16c0-9.4-2.63-18.61-7.58-26.6-5.12-8.27-7.86-18.17-7.25-28.75 1.41-24.49 21.15-44.47 45.62-46.15 3.75-.26 7.43-.1 10.97.45-22.58 3.46-40.26 22.57-41.59 45.7-.61 10.58 2.13 20.48 7.25 28.75z" fill="#f9e27d"/><path d="m177.19 110.061c0 10.41-3.24 20.06-8.76 28-5.72 8.25-8.6 18.15-8.6 28.2v24.4h-15v-24.4c0-10.05 2.88-19.95 8.6-28.2 5.52-7.94 8.76-17.59 8.76-28 0-24.61-18.08-45-41.69-48.61 1.32-.21 2.66-.36 4.02-.45 28.74-1.98 52.67 20.75 52.67 49.06z" fill="#f2c300"/><path d="m94.808 104.943c9.29-8.612 34.406-25.968 66.146.043 2.667 2.186 2.531 5.968-.226 8.063-10.528 8.004-37.066 23.072-65.66-.404-2.49-2.044-2.607-5.526-.26-7.702z" fill="#ffe2e2"/><circle cx="128" cy="108.242" fill="#5fcdff" r="16.796"/><path d="m159.834 163.88h-66.105v40.832c0 16.569 13.432 30.001 30.001 30.001h6.038c15.413 0 30.001-11.839 30.001-31.25h.065z" fill="#87828e"/><path d="m159.83 163.881v39.58h-.06c0 19.41-14.59 31.25-30 31.25h-6.04c-1.53 0-3.03-.11-4.49-.34 13.65-2.04 25.53-13.39 25.53-30.91h.06v-39.58z" fill="#796e84"/><path d="m134.24 234.371c-1.47.23-2.97.34-4.47.34h-6.04c-16.57 0-30-13.43-30-30v-40.83h15v40.83c0 15.04 11.07 27.5 25.51 29.66z" fill="#a4a4a5"/><g fill="#5f266d"><path d="m189.52 17.289c-28.611 0-52.396 8.628-61.52 21.021-9.124-12.394-32.908-21.021-61.52-21.021-36.739 0-65.519 14.225-65.519 32.384v153.798c0 2.251 1.917 4 4.048 4h.003 84.839c1.411 17.461 16.06 31.24 33.878 31.24h6.039c15.492 0 31.895-10.917 33.811-31.24h87.41.048c2.209 0 4-1.791 4-4 0-6.926 0-144.784 0-153.798.001-18.159-28.778-32.384-65.517-32.384zm-99.791 182.182h-80.283c5.059-15.298 44.078-26.429 80.283-19.302zm0-27.432c-29.285-5.353-64.523-.134-80.768 14.603v-136.969c0-11.533 23.622-24.384 57.519-24.384s57.52 12.851 57.52 24.384v7.36c-39.728 2.911-62.152 47.21-41.25 80.975 7.719 12.462 6.979 22.404 6.979 34.031zm40.041 58.672h-6.039c-13.405 0-24.469-10.196-25.852-23.24h57.642c-1.858 15.123-14.136 23.24-25.751 23.24zm-32.04-31.248c0-2.905 0-3.958 0-11.295h58.1c0 .015.004 2.346.004 11.295-6.3 0-50.736 0-58.104 0zm0-19.295v-12.288h58.1v12.288zm58.46-20.288h-58.53c-1.22-25.328-16.174-28.072-14.766-52.499 2.199-38.206 48.149-56.292 75.938-30.352 16.144 15.068 19.276 40.106 6.312 58.752-4.918 7.091-7.961 15.324-8.954 24.099zm7.644 39.591v-18.793c36.147-7.971 77.432 2.806 82.72 18.793zm83.204-12.829c-16.657-15.11-53.205-20.244-83.204-14.132 0-7.225-.902-19.499 7.88-32.166 23.324-33.546 1.244-80.335-39.714-83.312v-7.359c0-11.533 23.622-24.384 57.52-24.384 33.896 0 57.519 12.851 57.519 24.384v136.969z"/><path d="m163.49 101.893c-25.489-20.889-51.735-18.113-71.4.116-4.122 3.82-3.92 10.147.441 13.729 22.958 18.849 48.806 17.078 70.619.497 4.83-3.672 4.991-10.533.34-14.342zm-65.883 7.661c-.594-.487-.67-1.13-.08-1.678h.001c2.981-2.763 6.869-5.773 11.531-8.173-2.496 5.514-2.488 11.752.112 17.31-3.782-1.805-7.647-4.244-11.564-7.459zm30.393 11.484c-7.056 0-12.796-5.74-12.796-12.796s5.74-12.796 12.796-12.796 12.796 5.74 12.796 12.796-5.74 12.796-12.796 12.796zm30.309-11.173c-3.045 2.315-6.892 4.822-11.36 6.899 2.321-5.138 2.466-10.895.371-16.169 3.52 1.87 11.581 7.121 11.557 8.324-.005.336-.207.672-.568.946z"/><path d="m55.164 109.047h-17c-2.209 0-4 1.791-4 4s1.791 4 4 4h17c2.209 0 4-1.791 4-4s-1.791-4-4-4z"/><path d="m81.331 61.206-12.02-12.021c-1.561-1.563-4.094-1.563-5.656 0-1.563 1.562-1.563 4.095 0 5.656 12.964 12.965 12.64 13.193 14.849 13.193 3.529 0 5.355-4.302 2.827-6.828z"/><path d="m217.836 109.047h-17c-2.209 0-4 1.791-4 4s1.791 4 4 4h17c2.209 0 4-1.791 4-4s-1.791-4-4-4z"/><path d="m186.689 49.185-12.021 12.021c-2.528 2.526-.702 6.828 2.828 6.828 2.208 0 1.87-.214 14.849-13.193 1.563-1.562 1.563-4.095 0-5.656-1.562-1.563-4.095-1.563-5.656 0z"/><path d="m237.66 155.635c-1.5-.963-3.188-1.852-5.016-2.641-2.027-.877-4.382.059-5.258 2.086-.876 2.028.058 4.383 2.086 5.258 1.43.618 2.731 1.301 3.867 2.029 4.462 2.866 8.753-3.888 4.321-6.732z"/><path d="m217.169 148.885c-6.62-.969-14.049-1.263-19.767-1.003-2.205.123-3.893 2.01-3.771 4.215.122 2.206 2.034 3.894 4.214 3.773 8.137-.581 17.748.974 18.748.974 4.924-.003 5.451-7.245.576-7.959z"/></g></svg>