<?xml version="1.0" ?><svg enable-background="new 0 0 512 512" id="Layer_1" version="1.1" viewBox="0 0 512 512" xml:space="preserve" xmlns="http://www.w3.org/2000/svg" xmlns:xlink="http://www.w3.org/1999/xlink"><g><g><linearGradient gradientUnits="userSpaceOnUse" id="SVGID_1_" x1="0.0000038" x2="512" y1="256" y2="256"><stop offset="0" style="stop-color:#00AEEE"/><stop offset="1" style="stop-color:#0095DA"/></linearGradient><circle cx="256" cy="256" fill="url(#SVGID_1_)" r="256"/><linearGradient gradientUnits="userSpaceOnUse" id="SVGID_2_" x1="42.6666679" x2="469.3333435" y1="256.0005188" y2="256.0005188"><stop offset="0" style="stop-color:#0095DA"/><stop offset="1" style="stop-color:#00AEEE"/></linearGradient><path d="M256,469.3338623c-117.6314697,0-213.3333282-95.7018738-213.3333282-213.3333435    c0-117.6309204,95.7018585-213.333313,213.3333282-213.333313c117.636261,0,213.3333435,95.7024002,213.3333435,213.333313    C469.3333435,373.6319885,373.636261,469.3338623,256,469.3338623z" fill="url(#SVGID_2_)"/></g><g><polygon opacity="0.3" points="144.0021362,350.540802 219,382.3045349 219,176.1909332 144.0021362,144.4266663   "/><polygon opacity="0.3" points="309.0010681,145.6959991 309.0010681,351.8106689 383.9978638,383.5738831     383.9978638,177.4586639   "/><polygon opacity="0.3" points="229,381.4559937 299.0015869,351.8080139 299.0015869,145.694397 229,175.3413391   "/></g><g><polygon fill="#FFFFFF" points="136.0021362,342.540802 211,374.3045349 211,168.1909332 136.0021362,136.4266663   "/><polygon fill="#FFFFFF" points="301.0010681,137.6959991 301.0010681,343.8106689 375.9978638,375.5738831     375.9978638,169.4586639   "/><polygon fill="#FFFFFF" points="221,373.4559937 291.0015869,343.8080139 291.0015869,137.694397 221,167.3413391   "/></g></g></svg>